<svg width="19" height="20" viewBox="0 0 19 20" fill="none" xmlns="http://www.w3.org/2000/svg">
<path fill-rule="evenodd" clip-rule="evenodd" d="M18.1764 10.1671C18.1764 9.55058 18.121 8.95777 18.0183 8.38867H9.82959V11.7519H14.5088C14.3073 12.8387 13.6947 13.7595 12.7739 14.3761V16.5576H15.5838C17.2279 15.044 18.1764 12.815 18.1764 10.1671Z" fill="#4285F4"/>
<path fill-rule="evenodd" clip-rule="evenodd" d="M9.82959 18.6639C12.1771 18.6639 14.1452 17.8854 15.5838 16.5575L12.7739 14.3759C11.9953 14.8976 10.9994 15.2059 9.82959 15.2059C7.56505 15.2059 5.64829 13.6764 4.96459 11.6213H2.05981V13.874C3.49046 16.7156 6.43081 18.6639 9.82959 18.6639Z" fill="#34A853"/>
<path fill-rule="evenodd" clip-rule="evenodd" d="M4.96457 11.6213C4.79068 11.0996 4.69187 10.5424 4.69187 9.96934C4.69187 9.39629 4.79068 8.83905 4.96457 8.31738V6.0647H2.05979C1.47094 7.23846 1.13501 8.56636 1.13501 9.96934C1.13501 11.3723 1.47094 12.7002 2.05979 13.874L4.96457 11.6213Z" fill="#FBBC05"/>
<path fill-rule="evenodd" clip-rule="evenodd" d="M9.82959 4.73296C11.1061 4.73296 12.2522 5.17164 13.1533 6.0332L15.647 3.53944C14.1413 2.13645 12.1732 1.2749 9.82959 1.2749C6.43081 1.2749 3.49046 3.22327 2.05981 6.06481L4.96459 8.31749C5.64829 6.26242 7.56505 4.73296 9.82959 4.73296Z" fill="#EA4335"/>
</svg>
