<svg width="163" height="73" viewBox="0 0 163 73" fill="none" xmlns="http://www.w3.org/2000/svg">
<g clip-path="url(#clip0_155_3612)" filter="url(#filter0_d_155_3612)">
<path d="M60.384 8.04224H13.7159C10.9884 8.04224 8.77734 10.2475 8.77734 12.9678V59.5138C8.77734 62.2341 10.9884 64.4394 13.7159 64.4394H60.384C63.1115 64.4394 65.3225 62.2341 65.3225 59.5138V12.9678C65.3225 10.2475 63.1115 8.04224 60.384 8.04224Z" fill="#F4BA00"/>
<path d="M82.9849 34.356H92.1831L91.4215 38.6093H76.3159L77.0159 34.6598L88.4678 21.5378H79.3312L80.0927 17.2844H95.1983L94.4984 21.234L82.9865 34.356H82.9849Z" fill="#F4BA00"/>
<path d="M112.224 22.9049C113.199 23.8567 113.685 25.1834 113.685 26.8835C113.685 27.4507 113.624 28.0583 113.502 28.7063L111.736 38.6093H106.558L108.202 29.4045C108.264 29.0603 108.293 28.7564 108.293 28.493C108.293 27.643 108.055 26.9853 107.577 26.5183C107.099 26.0529 106.435 25.8202 105.583 25.8202C104.567 25.8202 103.714 26.1337 103.024 26.7623C102.334 27.3909 101.887 28.2716 101.684 29.4045V29.2526L100.04 38.6093H94.8322L97.8167 21.6589H103.024L102.629 23.9375C103.3 23.1893 104.116 22.5914 105.08 22.1453C106.044 21.6993 107.085 21.4763 108.202 21.4763C109.909 21.4763 111.249 21.953 112.222 22.9033L112.224 22.9049Z" fill="#F4BA00"/>
<path d="M125.594 22.1454C126.589 21.659 127.675 21.4166 128.853 21.4166C130.68 21.4166 132.158 22.0097 133.284 23.1942C134.41 24.3787 134.974 25.9947 134.974 28.039C134.974 28.687 134.912 29.3754 134.791 30.1043C134.486 31.8463 133.887 33.3799 132.994 34.7066C132.1 36.0334 131.024 37.0563 129.766 37.7755C128.508 38.4946 127.177 38.8533 125.777 38.8533C124.578 38.8533 123.574 38.6158 122.762 38.1391C121.95 37.6639 121.361 37.0305 120.996 36.2402L120.57 38.6093H115.362L119.351 16.1306H124.559L123.128 24.0588C123.778 23.2685 124.599 22.6318 125.596 22.1454H125.594ZM129.614 29.1621C129.614 28.1489 129.324 27.3603 128.746 26.793C128.167 26.2258 127.43 25.943 126.537 25.943C125.502 25.943 124.557 26.3179 123.705 27.0678C122.853 27.8176 122.304 28.8405 122.061 30.1366C121.999 30.5018 121.97 30.8347 121.97 31.1385C121.97 32.1307 122.253 32.9113 122.822 33.4769C123.391 34.0441 124.122 34.3269 125.014 34.3269C126.05 34.3269 126.999 33.9471 127.863 33.1876C128.726 32.4281 129.279 31.4003 129.523 30.1043C129.585 29.76 129.614 29.4465 129.614 29.1621Z" fill="#F4BA00"/>
<path d="M144.232 21.6587L141.248 38.6091H136.04L139.025 21.6587H144.232ZM140.044 19.2444C139.566 18.8097 139.328 18.257 139.328 17.5896C139.328 16.6782 139.682 15.8993 140.394 15.2513C141.103 14.6032 141.967 14.28 142.983 14.28C143.795 14.28 144.435 14.4982 144.901 14.9329C145.368 15.3692 145.601 15.93 145.601 16.6184C145.601 17.5104 145.246 18.2797 144.535 18.9277C143.824 19.5757 142.972 19.9005 141.977 19.9005C141.165 19.9005 140.52 19.6824 140.042 19.2476L140.044 19.2444Z" fill="#F4BA00"/>
<path d="M154.223 16.1306L150.234 38.6093H145.026L149.015 16.1306H154.223Z" fill="#F4BA00"/>
<path d="M82.622 42.4454C83.2636 42.7589 83.7546 43.1984 84.0948 43.7656C84.4351 44.3329 84.6068 44.997 84.6068 45.7582C84.6068 46.0216 84.5744 46.3529 84.5112 46.7504C84.3476 47.6845 83.9944 48.5151 83.4548 49.2391C82.9137 49.9647 82.2267 50.527 81.3955 50.9262C80.5643 51.3253 79.6472 51.5241 78.6475 51.5241H75.0603L76.7518 41.9751H80.3391C81.2205 41.9751 81.982 42.1319 82.6236 42.4437L82.622 42.4454ZM81.0471 48.8044C81.6288 48.3147 81.9917 47.6295 82.1376 46.7504C82.1829 46.4789 82.2056 46.2511 82.2056 46.0701C82.2056 45.3994 82.0015 44.8791 81.5915 44.5122C81.1832 44.1454 80.5999 43.9612 79.8465 43.9612H78.7286L77.7467 49.538H78.8517C79.7331 49.538 80.4655 49.2924 81.0471 48.8027V48.8044Z" fill="#E2AA00"/>
<path d="M92.0601 44.6222C92.6369 45.1523 92.9269 45.8762 92.9269 46.7925C92.9269 47.0915 92.9042 47.3597 92.8589 47.5957C92.8216 47.8041 92.7681 48.0272 92.6952 48.2615H87.4164C87.4067 48.3164 87.4035 48.4021 87.4035 48.52C87.4035 48.9192 87.512 49.223 87.7308 49.4315C87.9495 49.6399 88.2395 49.745 88.6041 49.745C89.1857 49.745 89.6313 49.4993 89.9408 49.0097H92.423C92.0957 49.7805 91.5643 50.4108 90.8271 50.9004C90.0898 51.3901 89.2635 51.6357 88.3448 51.6357C87.363 51.6357 86.5788 51.3642 85.9922 50.8196C85.4057 50.275 85.1124 49.5365 85.1124 48.6025C85.1124 48.3213 85.14 48.0304 85.1934 47.7314C85.3295 46.9428 85.6115 46.2528 86.0392 45.6646C86.467 45.0747 86.9984 44.6222 87.6352 44.3039C88.2719 43.9871 88.967 43.8271 89.722 43.8271C90.7039 43.8271 91.4833 44.0922 92.0617 44.6222H92.0601ZM90.5937 46.8184C90.5937 46.4564 90.4803 46.1768 90.2535 45.9813C90.0267 45.7858 89.7253 45.6888 89.3526 45.6888C88.9524 45.6888 88.6008 45.8084 88.2962 46.0492C87.9916 46.2899 87.7713 46.6325 87.6352 47.0769H90.5678C90.5856 46.9493 90.5954 46.8636 90.5954 46.8184H90.5937Z" fill="#E2AA00"/>
<path d="M97.4943 41.4597L95.7072 51.5258H93.3756L95.1627 41.4597H97.4943Z" fill="#E2AA00"/>
<path d="M101.069 43.9356L99.7319 51.526H97.4004L98.7371 43.9356H101.069ZM99.194 42.8545C98.9801 42.659 98.8732 42.4117 98.8732 42.1127C98.8732 41.7055 99.032 41.3564 99.3512 41.0656C99.6688 40.7763 100.056 40.6309 100.511 40.6309C100.874 40.6309 101.161 40.7278 101.37 40.9234C101.579 41.1189 101.684 41.3694 101.684 41.678C101.684 42.0772 101.526 42.4214 101.206 42.7123C100.889 43.0032 100.506 43.147 100.061 43.147C99.6963 43.147 99.4079 43.05 99.1956 42.8545H99.194Z" fill="#E2AA00"/>
<path d="M105.228 49.3489L107.846 43.9353H110.341L106.291 51.5257H103.399L102.049 43.9353H104.531L105.226 49.3489H105.228Z" fill="#E2AA00"/>
<path d="M117.046 44.6222C117.623 45.1523 117.913 45.8762 117.913 46.7925C117.913 47.0915 117.89 47.3597 117.845 47.5957C117.807 47.8041 117.754 48.0272 117.681 48.2615H112.402C112.393 48.3164 112.389 48.4021 112.389 48.52C112.389 48.9192 112.498 49.223 112.717 49.4315C112.935 49.6399 113.225 49.745 113.59 49.745C114.172 49.745 114.617 49.4993 114.927 49.0097H117.409C117.082 49.7805 116.55 50.4108 115.813 50.9004C115.076 51.3901 114.249 51.6357 113.331 51.6357C112.349 51.6357 111.565 51.3642 110.978 50.8196C110.392 50.275 110.098 49.5365 110.098 48.6025C110.098 48.3213 110.126 48.0304 110.179 47.7314C110.315 46.9428 110.597 46.2528 111.025 45.6646C111.453 45.0747 111.984 44.6222 112.621 44.3039C113.258 43.9871 113.953 43.8271 114.708 43.8271C115.69 43.8271 116.469 44.0922 117.048 44.6222H117.046ZM115.58 46.8184C115.58 46.4564 115.466 46.1768 115.239 45.9813C115.012 45.7858 114.711 45.6888 114.338 45.6888C113.938 45.6888 113.587 45.8084 113.282 46.0492C112.977 46.2899 112.757 46.6325 112.621 47.0769H115.554C115.571 46.9493 115.581 46.8636 115.581 46.8184H115.58Z" fill="#E2AA00"/>
<path d="M123.005 44.2409C123.464 43.9823 123.943 43.853 124.444 43.853L124.008 46.3158H123.367C122.785 46.3158 122.325 46.4403 121.989 46.6891C121.652 46.938 121.43 47.3759 121.322 48.0013L120.695 51.5242H118.363L119.7 43.9338H122.031L121.785 45.3074C122.14 44.8533 122.547 44.4978 123.005 44.2393V44.2409Z" fill="#E2AA00"/>
<path d="M127.281 43.9353L128.208 48.6831L130.799 43.9353H133.321L126.57 55.131H124.06L126.487 51.2671L124.687 43.9353H127.278H127.281Z" fill="#E2AA00"/>
<path d="M39.2753 15.0038C41.6182 15.0636 43.2984 15.9767 44.6141 17.5183C45.8584 18.9776 46.5227 20.6728 46.7123 22.536C46.7479 22.8786 46.7933 23.2228 46.7901 23.5671C46.7836 24.1876 46.3656 24.6191 45.8001 24.632C45.2298 24.6433 44.7874 24.2409 44.7647 23.6091C44.7323 22.7106 44.6254 21.8282 44.3224 20.975C43.9141 19.8211 43.2887 18.7934 42.3003 17.9902C40.5683 16.5827 38.3599 16.5778 36.6311 17.9999C35.3835 19.0244 34.6997 20.3609 34.3741 21.8702C34.2752 22.3243 34.2542 22.7946 34.2007 23.2584C34.1861 23.3796 34.1958 23.5024 34.1813 23.6236C34.1132 24.2571 33.6919 24.6595 33.1281 24.632C32.5561 24.6045 32.143 24.1747 32.1559 23.5509C32.1916 21.7329 32.6339 20.0183 33.6433 18.4524C34.6754 16.8525 36.0624 15.6728 38.0229 15.1994C38.496 15.0846 38.9902 15.0458 39.277 15.0022L39.2753 15.0038Z" fill="black"/>
<path d="M23.2089 39.6243C23.0841 40.3579 23.4957 42.0353 25.3379 41.5328L32.0522 39.7584C33.9836 39.2477 35.7626 40.9332 35.2247 42.7642L33.4489 48.8016C32.7019 51.3387 34.5993 53.8839 37.25 53.9001L50.3352 53.9873V53.9744L52.4026 53.9873C55.0712 54.0035 57.1192 51.7459 56.7011 49.2476L52.9211 26.6364C52.5646 24.5016 50.6122 22.9373 48.3325 22.96L47.0849 22.9729C47.0396 22.9729 47.0055 23.0117 47.0088 23.0553C47.0234 23.225 47.0331 23.3963 47.0315 23.5676C47.0234 24.3029 46.5065 24.8458 45.8033 24.8604C45.0872 24.8733 44.546 24.3513 44.5185 23.6144C44.512 23.4254 44.5006 23.2444 44.486 23.0698C44.4828 23.0294 44.4488 22.9987 44.4083 23.0004L34.5264 23.0973C34.4875 23.0973 34.4551 23.128 34.4502 23.1668C34.4502 23.1814 34.447 23.1959 34.4453 23.2104C34.4389 23.2735 34.4308 23.3769 34.4291 23.4399C34.4291 23.5094 34.4259 23.5789 34.4194 23.6468C34.34 24.382 33.8458 24.8636 33.1783 24.8636C33.1556 24.8636 33.1346 24.8636 33.1119 24.8636C32.4006 24.8297 31.8934 24.277 31.908 23.5482C31.9096 23.4334 31.9145 23.3187 31.921 23.2056C31.9226 23.162 31.8886 23.1248 31.8432 23.1248L29.4226 23.149C27.4523 23.1684 25.7835 24.5291 25.4691 26.373L25.2698 27.5413L25.265 27.5656L25.1354 28.3251L24.8777 29.8361L24.672 31.0432L24.288 33.2895L23.857 35.8121L23.4973 37.9226L23.2056 39.6259" fill="black"/>
<path d="M30.2554 42.0741L18.844 45.248C17.0925 45.7344 16.7992 48.0857 18.3757 48.9874L21.9257 51.0171C22.6904 51.4551 23.3256 52.0869 23.7647 52.8481L25.8467 56.455C26.7524 58.0242 29.1067 57.7301 29.5943 55.9848L32.7798 44.5919C33.2075 43.0599 31.793 41.6491 30.257 42.0758L30.2554 42.0741Z" fill="black"/>
</g>
<defs>
<filter id="filter0_d_155_3612" x="4.81965" y="8.04224" width="153.361" height="64.3126" filterUnits="userSpaceOnUse" color-interpolation-filters="sRGB">
<feFlood flood-opacity="0" result="BackgroundImageFix"/>
<feColorMatrix in="SourceAlpha" type="matrix" values="0 0 0 0 0 0 0 0 0 0 0 0 0 0 0 0 0 0 127 0" result="hardAlpha"/>
<feOffset dy="3.95769"/>
<feGaussianBlur stdDeviation="1.97885"/>
<feComposite in2="hardAlpha" operator="out"/>
<feColorMatrix type="matrix" values="0 0 0 0 0 0 0 0 0 0 0 0 0 0 0 0 0 0 0.25 0"/>
<feBlend mode="normal" in2="BackgroundImageFix" result="effect1_dropShadow_155_3612"/>
<feBlend mode="normal" in="SourceGraphic" in2="effect1_dropShadow_155_3612" result="shape"/>
</filter>
<clipPath id="clip0_155_3612">
<rect width="145.445" height="56.3971" fill="white" transform="translate(8.77734 8.04224)"/>
</clipPath>
</defs>
</svg>
